<?xml version="1.0" encoding="utf-8"?>
<!-- Generator: Adobe Illustrator 18.0.0, SVG Export Plug-In . SVG Version: 6.00 Build 0)  -->
<!DOCTYPE svg PUBLIC "-//W3C//DTD SVG 1.1//EN" "http://www.w3.org/Graphics/SVG/1.1/DTD/svg11.dtd">
<svg version="1.1" id="Layer_1" xmlns="http://www.w3.org/2000/svg" xmlns:xlink="http://www.w3.org/1999/xlink" x="0px" y="0px"
	 viewBox="0 0 960 560" enable-background="new 0 0 960 560" xml:space="preserve">
<path fill="#EEEEEE" d="M655.2,420.6V402c32.6-14.1,56.4-32.3,71.1-54.7c14.8-22.4,22.2-45.4,22.2-69c0-4.5-1-8-3-10.6
	c-2-2.3-3.9-3.4-5.9-3.4c-1.7,0-4.2,1-7.6,3c-8.2,4.8-18.3,7.2-30.4,7.2c-16.6,0-31-6.5-43.3-19.4C646.1,242.2,640,227,640,209.5
	c0-18.6,7-34.9,21.1-49c14.1-14.1,31.1-21.1,51.1-21.1c24.2,0,44.9,9.4,62.1,28.1c17.2,18.7,25.8,44.4,25.8,77
	c0,40.3-12.2,76-36.5,107.2S703,406,655.2,420.6z"/>
<g>
</g>
<g>
</g>
<g>
</g>
<g>
</g>
<g>
</g>
<g>
</g>
<g>
</g>
<g>
</g>
<g>
</g>
<g>
</g>
<g>
</g>
<g>
</g>
<g>
</g>
<g>
</g>
<g>
</g>
</svg>
