<?xml version="1.0" encoding="utf-8"?>
<!-- Generator: Adobe Illustrator 18.0.0, SVG Export Plug-In . SVG Version: 6.00 Build 0)  -->
<!DOCTYPE svg PUBLIC "-//W3C//DTD SVG 1.1//EN" "http://www.w3.org/Graphics/SVG/1.1/DTD/svg11.dtd">
<svg version="1.1" id="Layer_1" xmlns="http://www.w3.org/2000/svg" xmlns:xlink="http://www.w3.org/1999/xlink" x="0px" y="0px"
	 viewBox="0 0 960 560" enable-background="new 0 0 960 560" xml:space="preserve">
<g>
	<path fill="#EEEEEE" d="M149.5,193.6c0,21.7-5.2,38.7-13.5,51.4c3.8,2.2,19.2,10.6,37.8,10.6c25.5,0,43.3-23.4,43.3-44.4
		c0-17.5-10.7-29.7-14.5-33.5c-10.2,0.3-24.2,8.8-30.2,13.4c-2.3,1.7-5.7,1.3-7.4-1c-1.8-2.3-1.3-5.6,1-7.4
		c0.2-0.1,17.3-14.1,17.3-65.5c0-37.8,23-67.5,44.2-86.7c-20.9,10.1-47.9,25.7-74.7,48.5c-14.5,12.3-29.9,27.6-44.4,46.1
		C124.8,135.9,149.5,158.2,149.5,193.6z"/>
	<path fill="#EEEEEE" d="M429.2,335.4c-11.8,6-22.1,18.3-27.5,25.7c-3.1,5.6-5.6,8.3-5.9,8.6c-1.9,1.9-4.9,2.1-7,0.5
		c-2.1-1.6-2.7-4.6-1.3-6.9c0.1-0.1,2-3.3,5.3-7.8c4.4-8.4,9.7-23.4,9.9-47.6c0.3-37-18.2-63.7-54.9-79.4
		c-21.4-9.1-43.1-11.8-52.4-12.5c-2,21,4.6,34.1,4.6,34.3c1.1,2.2,0.6,4.9-1.3,6.5c-1.9,1.6-4.7,1.6-6.6,0.1c0,0-9.8-6.6-42.5-6.6
		c-58.7,0-89.4,42.7-89.4,84.8c0,44.7,36.3,59.1,53.9,59.1c27.4,0,45.8-18.2,45.8-45.4c0-22-17.5-27.8-27.8-27.8
		c-12.6,0-23.2,11.2-23.2,18.3c0,5.1,3.1,7.6,3.9,7.8c4.1,0,6.2-1.8,6.3-1.8c1.7-1.6,4.1-1.8,6.1-0.7c2,1.1,3,3.4,2.6,5.7
		c-1,4.9-6.1,14.1-18.9,14.1c-13.9,0-23.9-11.4-23.9-27.1c0-16.3,15.1-46.8,51.4-46.8c21.9,0,40.6,7,54.2,20.3
		c15.9,15.5,23.9,38.4,23.9,68c0,52.5-51.7,96.8-113,96.8c-33,0-63.5-12.2-86-34.4c-24.8-24.5-37.9-59.1-37.9-100
		c0-31.3,10.5-53.9,22.1-69.5c-5.6,1.5-11.3,2.2-17,2.2c-15.4,0-27.8-3.5-36.6-7.2c-3.7,21-5.8,43.6-5.8,68.1
		C40,469.5,147.6,560,248,560c89.6,0,189.7-80.7,189.7-188.7C437.8,349.4,432.2,339.3,429.2,335.4z"/>
	<path fill="#EEEEEE" d="M115.2,202c0-22.5-15.7-37.9-27.9-46.5c-12.9,21.3-24.3,45.9-32.7,74.1c6.5,4.3,15.6,8.8,25.2,8.8
		C90.4,238.5,115.2,234.9,115.2,202z"/>
	<path fill="#EEEEEE" d="M201.2,445.4c-45.2,0-93.8-32.7-93.8-104.4c0-33.5,15.4-53.3,27-63.4c2.6,1.1,5.6,2.1,8.8,3.2
		c-8.8,16.5-13.3,35-13.3,54.3c0,61.6,49.1,89.2,84,89.2c33,0,59.2-17.9,70.2-45.3C283.9,415,246,445.4,201.2,445.4z"/>
	<path fill="#EEEEEE" d="M264.5,220.6c-4.8-0.3-9.8-0.5-15.1-0.5c-1,0-1.9,0-2.9,0c0.4-3,0.6-6,0.6-9c0-28.7-15.9-54.5-36.1-61.5
		c3.8-8.7,2.3-18.5,2.3-32.4c0-58.5,65.7-103.6,88-117.2c0,0-50,56.2-50,114.9C251.4,157.6,264.5,159.7,264.5,220.6z"/>
</g>
<g>
</g>
<g>
</g>
<g>
</g>
<g>
</g>
<g>
</g>
<g>
</g>
<g>
</g>
<g>
</g>
<g>
</g>
<g>
</g>
<g>
</g>
<g>
</g>
<g>
</g>
<g>
</g>
<g>
</g>
</svg>
