<?xml version="1.0" encoding="utf-8"?>
<!-- Generator: Adobe Illustrator 18.0.0, SVG Export Plug-In . SVG Version: 6.00 Build 0)  -->
<!DOCTYPE svg PUBLIC "-//W3C//DTD SVG 1.1//EN" "http://www.w3.org/Graphics/SVG/1.1/DTD/svg11.dtd">
<svg version="1.1" id="Layer_1" xmlns="http://www.w3.org/2000/svg" xmlns:xlink="http://www.w3.org/1999/xlink" x="0px" y="0px"
	 viewBox="0 0 114 144" enable-background="new 0 0 114 144" xml:space="preserve">
<g opacity="5.000000e-002">
	<path d="M24.9,84.2c0,3-0.7,5.3-1.8,7c0.5,0.3,2.6,1.4,5.2,1.4c3.5,0,5.9-3.2,5.9-6.1c0-2.4-1.5-4.1-2-4.6c-1.4,0-3.3,1.2-4.1,1.8
		c-0.3,0.2-0.8,0.2-1-0.1c-0.2-0.3-0.2-0.8,0.1-1c0,0,2.4-1.9,2.4-9c0-5.2,3.1-9.2,6-11.9c-2.9,1.4-6.6,3.5-10.2,6.6
		c-2,1.7-4.1,3.8-6.1,6.3C21.5,76.3,24.9,79.4,24.9,84.2z"/>
	<path d="M63.2,103.6c-1.6,0.8-3,2.5-3.8,3.5c-0.4,0.8-0.8,1.1-0.8,1.2c-0.3,0.3-0.7,0.3-1,0.1c-0.3-0.2-0.4-0.6-0.2-0.9
		c0,0,0.3-0.5,0.7-1.1c0.6-1.2,1.3-3.2,1.3-6.5c0-5.1-2.5-8.7-7.5-10.9c-2.9-1.2-5.9-1.6-7.2-1.7c-0.3,2.9,0.6,4.7,0.6,4.7
		c0.2,0.3,0.1,0.7-0.2,0.9c-0.3,0.2-0.6,0.2-0.9,0c0,0-1.3-0.9-5.8-0.9c-8,0-12.2,5.8-12.2,11.6c0,6.1,5,8.1,7.4,8.1
		c3.7,0,6.3-2.5,6.3-6.2c0-3-2.4-3.8-3.8-3.8c-1.7,0-3.2,1.5-3.2,2.5c0,0.7,0.4,1,0.5,1.1c0.6,0,0.9-0.2,0.9-0.3
		c0.2-0.2,0.6-0.3,0.8-0.1c0.3,0.2,0.4,0.5,0.4,0.8c-0.1,0.7-0.8,1.9-2.6,1.9c-1.9,0-3.3-1.6-3.3-3.7c0-2.2,2.1-6.4,7-6.4
		c3,0,5.6,1,7.4,2.8c2.2,2.1,3.3,5.3,3.3,9.3c0,7.2-7.1,13.2-15.5,13.2c-4.5,0-8.7-1.7-11.8-4.7c-3.4-3.4-5.2-8.1-5.2-13.7
		c0-4.3,1.4-7.4,3-9.5c-0.8,0.2-1.5,0.3-2.3,0.3c-2.1,0-3.8-0.5-5-1c-0.5,2.9-0.8,6-0.8,9.3c0,18.4,14.7,30.8,28.5,30.8
		c12.3,0,26-11,26-25.8C64.3,105.5,63.6,104.2,63.2,103.6z"/>
	<path d="M20.2,85.4c0-3.1-2.1-5.2-3.8-6.4c-1.8,2.9-3.3,6.3-4.5,10.1c0.9,0.6,2.1,1.2,3.4,1.2C16.8,90.4,20.2,89.9,20.2,85.4z"/>
	<path d="M32,118.7c-6.2,0-12.8-4.5-12.8-14.3c0-4.6,2.1-7.3,3.7-8.7c0.4,0.1,0.8,0.3,1.2,0.4c-1.2,2.3-1.8,4.8-1.8,7.4
		c0,8.4,6.7,12.2,11.5,12.2c4.5,0,8.1-2.4,9.6-6.2C43.3,114.5,38.1,118.7,32,118.7z"/>
	<path d="M40.6,87.9c-0.7,0-1.3-0.1-2.1-0.1c-0.1,0-0.3,0-0.4,0c0.1-0.4,0.1-0.8,0.1-1.2c0-3.9-2.2-7.5-4.9-8.4
		c0.5-1.2,0.3-2.5,0.3-4.4c0-8,9-14.2,12-16c0,0-6.8,7.7-6.8,15.7C38.8,79.3,40.6,79.6,40.6,87.9z"/>
</g>
<path opacity="5.000000e-002" d="M97.1,50.2c4.6-6,7-12.8,7-20.5c0-6.2-1.6-11.1-4.9-14.7c-3.3-3.6-7.2-5.4-11.8-5.4
	c-3.8,0-7.1,1.3-9.7,4c-2.7,2.7-4,5.8-4,9.3c0,3.3,1.2,6.2,3.5,8.7c2.3,2.5,5.1,3.7,8.3,3.7c2.3,0,4.2-0.5,5.8-1.4
	c0.6-0.4,1.1-0.6,1.5-0.6c0.4,0,0.8,0.2,1.1,0.6c0.4,0.5,0.6,1.2,0.6,2c0,4.5-1.4,8.9-4.2,13.2s-7.3,7.7-13.6,10.4v3.5
	C85.6,60.5,92.5,56.1,97.1,50.2z"/>
<g>
</g>
<g>
</g>
<g>
</g>
<g>
</g>
<g>
</g>
<g>
</g>
<g>
</g>
<g>
</g>
<g>
</g>
<g>
</g>
<g>
</g>
<g>
</g>
<g>
</g>
<g>
</g>
<g>
</g>
</svg>
