<?xml version="1.0" encoding="utf-8"?>
<!-- Generator: Adobe Illustrator 18.0.0, SVG Export Plug-In . SVG Version: 6.00 Build 0)  -->
<!DOCTYPE svg PUBLIC "-//W3C//DTD SVG 1.1//EN" "http://www.w3.org/Graphics/SVG/1.1/DTD/svg11.dtd">
<svg version="1.1" id="Layer_1" xmlns="http://www.w3.org/2000/svg" xmlns:xlink="http://www.w3.org/1999/xlink" x="0px" y="0px"
	 viewBox="0 0 160 160" enable-background="new 0 0 160 160" xml:space="preserve">
<g>
	<path d="M0.3,130.4V127h2.5v3.4H0.3z M0.3,152v-17.6h2.5V152H0.3z"/>
	<path d="M15.7,128.7c-3.1,0-5.1,1.5-5.1,3.9c0,2.8,3.4,3.7,6.7,4.9c3.3,1.2,6.6,2.8,6.6,7c0,5.7-4.9,7.8-8.6,7.8
		c-3.6,0-6.3-1-8.9-3.6l2-1.8c2.5,2.5,4.4,2.9,6.9,2.9c2.9,0,5.7-1.5,5.7-4.9c0-3-2.9-4.1-6-5.3c-3.5-1.3-7.2-2.6-7.2-6.7
		c0-4.6,3.4-6.7,7.4-6.7c2.9,0,5.4,0.8,7.5,2.4l-1.8,1.9C19.9,129.5,17.6,128.7,15.7,128.7z"/>
	<path d="M31,136.6v9.7c0,3.2,1.1,3.8,2.7,3.8c0.6,0,1.4-0.2,2.2-0.5l0.6,1.9c-0.8,0.4-1.8,0.8-2.8,0.8c-3.4,0-5.1-2.1-5.1-5.7v-10
		h-2.5v-2.2h2.5v-4.4H31v4.4h5.1v2.2H31z"/>
	<path d="M52,152v-3.1c-1.4,2.3-3.6,3.5-6.3,3.5c-5,0-6.6-3.2-6.6-8.5v-9.5h2.5v9.1c0,3.3,0.6,6.7,4.5,6.7c2.6,0,4.8-1.9,5.9-4.1
		v-11.7h2.5V152H52z"/>
	<path d="M73,149.7c-1.3,1.8-3.5,2.7-5.7,2.7c-5.2,0-9-4.1-9-9.2c0-5,3.9-9.3,9.1-9.3c2,0,4.1,0.8,5.6,2.2v-11.2h2.5V152H73V149.7z
		 M73,138.9c-1.3-1.7-3.6-2.8-5.6-2.8c-3.8,0-6.6,3.2-6.6,6.9c0,3.8,2.7,7.1,6.6,7.1c2.2,0,4.6-1.3,5.6-3.3V138.9z"/>
	<path d="M80.9,134.3l5,14.9l5.3-14.9h2.6L84.3,160l-2.1-0.8l2.3-6.4l-6.3-18.5H80.9z"/>
	<path fill="#A60500" d="M104,131.5V152h-5.8v-20.4h-5.8v-4.8h17.5v4.8H104z"/>
	<path fill="#A60500" d="M117.6,134.6c1.6-1.8,3.7-2.4,5.5-2.4c1.9,0,3.7,1,5,2.6c1.6,2,1.7,4.5,1.7,7.2v10H124v-9.8
		c0-1.3,0-2.7-0.4-3.7s-1.3-1.3-2.3-1.3c-1.3,0-2.8,0.7-3.6,2V152h-5.8v-27.1h5.8V134.6z"/>
	<path fill="#A60500" d="M145.2,152l-0.5-1.5c-1.2,1.5-3.2,1.9-5.1,1.9c-3.6,0-7-2.3-7-6.2c0-4.7,4.4-6.2,8.4-6.2
		c1.1,0,2.2,0.1,3.3,0.4v-0.1c0-2.2-0.9-3.6-3.5-3.6c-2.2,0-4,0.8-5.7,1.7l-1.5-4c2.6-1.3,5.6-2.1,8.6-2.1c5.3,0,8.1,3.1,8.1,8.2
		V152H145.2z M144.3,143.7c-0.8-0.2-1.6-0.3-2.3-0.3c-1.8,0-3.7,0.8-3.7,2.8c0,1.4,1.3,2.3,2.6,2.3c1.4,0,2.4-0.5,3.4-1.4V143.7z"/>
	<path fill="#A60500" d="M153.9,130.3v-4.6h5.8v4.6H153.9z M153.9,152v-19.3h5.8V152H153.9z"/>
</g>
<g>
	<path fill="#0040AB" d="M62.1,38.8c0,4.4-1,7.8-2.7,10.3c0.8,0.4,3.9,2.1,7.6,2.1c5.1,0,8.7-4.7,8.7-8.9c0-3.5-2.1-6-2.9-6.7
		c-2,0.1-4.8,1.8-6.1,2.7c-0.5,0.4-1.1,0.3-1.5-0.2c-0.4-0.5-0.3-1.1,0.2-1.5c0,0,3.5-2.8,3.5-13.1c0-7.6,4.6-13.5,8.9-17.4
		c-4.2,2-9.6,5.2-15,9.7c-2.9,2.5-6,5.5-8.9,9.2C57.1,27.2,62.1,31.7,62.1,38.8z"/>
	<path fill="#A60500" d="M118.1,67.2c-2.4,1.2-4.4,3.7-5.5,5.2c-0.6,1.1-1.1,1.7-1.2,1.7c-0.4,0.4-1,0.4-1.4,0.1
		c-0.4-0.3-0.5-0.9-0.3-1.4c0,0,0.4-0.7,1.1-1.6c0.9-1.7,1.9-4.7,2-9.5c0.1-7.4-3.6-12.8-11-15.9c-4.3-1.8-8.6-2.4-10.5-2.5
		c-0.4,4.2,0.9,6.8,0.9,6.9c0.2,0.4,0.1,1-0.3,1.3c-0.4,0.3-0.9,0.3-1.3,0c0,0-2-1.3-8.5-1.3c-11.8,0-17.9,8.6-17.9,17
		c0,9,7.3,11.9,10.8,11.9c5.5,0,9.2-3.7,9.2-9.1c0-4.4-3.5-5.6-5.6-5.6c-2.5,0-4.7,2.3-4.7,3.7c0,1,0.6,1.5,0.8,1.6
		c0.8,0,1.2-0.4,1.3-0.4c0.3-0.3,0.8-0.4,1.2-0.1c0.4,0.2,0.6,0.7,0.5,1.1c-0.2,1-1.2,2.8-3.8,2.8c-2.8,0-4.8-2.3-4.8-5.4
		c0-3.3,3-9.4,10.3-9.4c4.4,0,8.1,1.4,10.9,4.1c3.2,3.1,4.8,7.7,4.8,13.6c0,10.5-10.4,19.4-22.7,19.4c-6.6,0-12.7-2.5-17.2-6.9
		c-5-4.9-7.6-11.8-7.6-20.1c0-6.3,2.1-10.8,4.4-13.9c-1.1,0.3-2.3,0.4-3.4,0.4c-3.1,0-5.6-0.7-7.3-1.4c-0.7,4.2-1.2,8.7-1.2,13.7
		c0,27,21.6,45.2,41.7,45.2c18,0,38-16.2,38-37.8C119.9,70.1,118.8,68,118.1,67.2z"/>
	<path fill="#A60500" d="M55.2,40.5c0-4.5-3.1-7.6-5.6-9.3c-2.6,4.3-4.9,9.2-6.5,14.9c1.3,0.9,3.1,1.8,5,1.8
		C50.2,47.8,55.2,47.1,55.2,40.5z"/>
	<path fill="#0040AB" d="M72.4,89.3c-9.1,0-18.8-6.5-18.8-20.9c0-6.7,3.1-10.7,5.4-12.7c0.5,0.2,1.1,0.4,1.8,0.6
		c-1.8,3.3-2.7,7-2.7,10.9c0,12.3,9.8,17.9,16.8,17.9c6.6,0,11.9-3.6,14.1-9.1C89,83.2,81.4,89.3,72.4,89.3z"/>
	<path fill="#A60500" d="M85.1,44.2c-1-0.1-2-0.1-3-0.1c-0.2,0-0.4,0-0.6,0c0.1-0.6,0.1-1.2,0.1-1.8c0-5.8-3.2-10.9-7.2-12.3
		c0.8-1.7,0.5-3.7,0.5-6.5C74.9,11.8,88.1,2.7,92.5,0c0,0-10,11.3-10,23C82.5,31.6,85.1,32,85.1,44.2z"/>
</g>
<g>
</g>
<g>
</g>
<g>
</g>
<g>
</g>
<g>
</g>
<g>
</g>
<g>
</g>
<g>
</g>
<g>
</g>
<g>
</g>
<g>
</g>
<g>
</g>
<g>
</g>
<g>
</g>
<g>
</g>
</svg>
