<?xml version="1.0" encoding="utf-8"?>
<!-- Generator: Adobe Illustrator 18.0.0, SVG Export Plug-In . SVG Version: 6.00 Build 0)  -->
<!DOCTYPE svg PUBLIC "-//W3C//DTD SVG 1.1//EN" "http://www.w3.org/Graphics/SVG/1.1/DTD/svg11.dtd">
<svg version="1.1" id="Layer_1" xmlns="http://www.w3.org/2000/svg" xmlns:xlink="http://www.w3.org/1999/xlink" x="0px" y="0px"
	 viewBox="0 0 320 72" enable-background="new 0 0 320 72" xml:space="preserve">
<g>
	<path d="M57.6,22.5v-5.6h4v5.6H57.6z M57.6,58V29h4v29H57.6z"/>
	<path d="M83,19.7c-5.1,0-8.4,2.4-8.4,6.5c0,4.6,5.5,6.1,11,8.1c5.4,2,10.8,4.6,10.8,11.6c0,9.3-8.1,12.8-14.1,12.8
		c-5.9,0-10.3-1.7-14.6-5.9l3.3-3c4.1,4.2,7.2,4.8,11.3,4.8c4.7,0,9.3-2.5,9.3-8.1c0-5-4.7-6.8-9.8-8.7c-5.7-2.1-11.8-4.3-11.8-11
		c0-7.6,5.6-11.1,12.2-11.1c4.7,0,8.8,1.3,12.3,4l-2.9,3.2C89.9,21.1,86.2,19.7,83,19.7z"/>
	<path d="M108.2,32.7v16c0,5.2,1.8,6.2,4.5,6.2c1.1,0,2.3-0.3,3.6-0.8l1,3.2c-1.3,0.7-2.9,1.2-4.6,1.2c-5.6,0-8.4-3.4-8.4-9.4V32.7
		h-4.1V29h4.1v-7.2h4V29h8.4v3.7H108.2z"/>
	<path d="M142.7,58v-5.1c-2.3,3.9-5.9,5.8-10.3,5.8c-8.3,0-10.9-5.3-10.9-14V29h4v15c0,5.5,1,11,7.5,11c4.3,0,7.8-3.1,9.7-6.8V29h4
		v29H142.7z"/>
	<path d="M177.2,54.2c-2.2,2.9-5.8,4.5-9.3,4.5c-8.5,0-14.8-6.8-14.8-15.1c0-8.3,6.4-15.3,14.9-15.3c3.3,0,6.8,1.2,9.3,3.6V13.4h4
		V58h-4V54.2z M177.2,36.5c-2.1-2.8-5.9-4.6-9.2-4.6c-6.3,0-10.8,5.2-10.8,11.4c0,6.2,4.5,11.6,10.8,11.6c3.6,0,7.5-2.1,9.2-5.5
		V36.5z"/>
	<path d="M190.3,29l8.2,24.5l8.7-24.5h4.3l-15.7,42.2l-3.4-1.4l3.9-10.4L185.9,29H190.3z"/>
	<path fill="#A60500" d="M228.3,24.4V58h-9.6V24.4H209v-8h28.8v8H228.3z"/>
	<path fill="#A60500" d="M250.7,29.4c2.6-2.9,6.1-4,9-4c3.1,0,6.1,1.7,8.2,4.2c2.6,3.3,2.8,7.4,2.8,11.8V58h-9.6V41.8
		c0-2.1,0-4.5-0.7-6.1c-0.7-1.6-2.2-2.2-3.8-2.2c-2.1,0-4.6,1.1-5.9,3.3V58h-9.6V13.4h9.6V29.4z"/>
	<path fill="#A60500" d="M296.1,58l-0.9-2.5c-1.9,2.4-5.2,3.2-8.4,3.2c-5.9,0-11.5-3.8-11.5-10.3c0-7.7,7.3-10.2,13.8-10.2
		c1.8,0,3.7,0.2,5.5,0.7v-0.2c0-3.7-1.4-6-5.8-6c-3.6,0-6.6,1.3-9.4,2.7l-2.5-6.6c4.3-2.1,9.2-3.4,14.1-3.4
		c8.7,0,13.3,5.2,13.3,13.5V58H296.1z M294.5,44.3c-1.4-0.3-2.6-0.5-3.8-0.5c-2.9,0-6.1,1.2-6.1,4.6c0,2.4,2.1,3.9,4.3,3.9
		c2.3,0,3.9-0.8,5.5-2.3V44.3z"/>
	<path fill="#A60500" d="M310.4,22.3v-7.6h9.6v7.6H310.4z M310.4,58V26.1h9.6V58H310.4z"/>
</g>
<g>
	<path fill="#0040AB" d="M13.8,25.1c0,2.7-0.7,4.9-1.7,6.5c0.5,0.3,2.4,1.3,4.7,1.3c3.2,0,5.4-2.9,5.4-5.6c0-2.2-1.3-3.7-1.8-4.2
		c-1.3,0-3,1.1-3.8,1.7c-0.3,0.2-0.7,0.2-0.9-0.1c-0.2-0.3-0.2-0.7,0.1-0.9c0,0,2.2-1.8,2.2-8.2c0-4.8,2.9-8.5,5.6-10.9
		c-2.6,1.3-6,3.2-9.4,6.1c-1.8,1.6-3.8,3.5-5.6,5.8C10.7,17.9,13.8,20.7,13.8,25.1z"/>
	<path fill="#A60500" d="M48.9,43c-1.5,0.7-2.8,2.3-3.5,3.2c-0.4,0.7-0.7,1-0.7,1.1c-0.2,0.2-0.6,0.3-0.9,0.1
		c-0.3-0.2-0.3-0.6-0.2-0.9c0,0,0.2-0.4,0.7-1c0.6-1.1,1.2-2.9,1.2-6c0-4.6-2.3-8-6.9-10c-2.7-1.1-5.4-1.5-6.6-1.6
		c-0.2,2.6,0.6,4.3,0.6,4.3c0.1,0.3,0.1,0.6-0.2,0.8c-0.2,0.2-0.6,0.2-0.8,0c0,0-1.2-0.8-5.3-0.8c-7.4,0-11.2,5.4-11.2,10.7
		c0,5.6,4.6,7.4,6.8,7.4c3.4,0,5.8-2.3,5.8-5.7c0-2.8-2.2-3.5-3.5-3.5c-1.6,0-2.9,1.4-2.9,2.3c0,0.6,0.4,1,0.5,1
		c0.5,0,0.8-0.2,0.8-0.2c0.2-0.2,0.5-0.2,0.8-0.1c0.3,0.1,0.4,0.4,0.3,0.7c-0.1,0.6-0.8,1.8-2.4,1.8c-1.7,0-3-1.4-3-3.4
		c0-2.1,1.9-5.9,6.5-5.9c2.7,0,5.1,0.9,6.8,2.6c2,1.9,3,4.8,3,8.6c0,6.6-6.5,12.2-14.2,12.2c-4.1,0-8-1.5-10.8-4.3
		c-3.1-3.1-4.8-7.4-4.8-12.6c0-3.9,1.3-6.8,2.8-8.7c-0.7,0.2-1.4,0.3-2.1,0.3c-1.9,0-3.5-0.4-4.6-0.9C0.3,37,0,39.8,0,42.9
		c0,16.9,13.5,28.3,26.2,28.3C37.4,71.2,50,61.1,50,47.5C50,44.7,49.3,43.5,48.9,43z"/>
	<path fill="#A60500" d="M9.4,26.2c0-2.8-2-4.8-3.5-5.8c-1.6,2.7-3.1,5.8-4.1,9.3c0.8,0.5,2,1.1,3.2,1.1C6.3,30.8,9.4,30.3,9.4,26.2
		z"/>
	<path fill="#0040AB" d="M20.3,56.8c-5.7,0-11.8-4.1-11.8-13.1c0-4.2,1.9-6.7,3.4-8c0.3,0.1,0.7,0.3,1.1,0.4
		c-1.1,2.1-1.7,4.4-1.7,6.8c0,7.7,6.2,11.2,10.6,11.2c4.1,0,7.4-2.2,8.8-5.7C30.7,53,25.9,56.8,20.3,56.8z"/>
	<path fill="#A60500" d="M28.2,28.5c-0.6,0-1.2-0.1-1.9-0.1c-0.1,0-0.2,0-0.4,0c0-0.4,0.1-0.8,0.1-1.1c0-3.6-2-6.9-4.5-7.7
		c0.5-1.1,0.3-2.3,0.3-4.1c0-7.4,8.3-13,11.1-14.7c0,0-6.3,7.1-6.3,14.4C26.6,20.6,28.2,20.9,28.2,28.5z"/>
</g>
<g>
</g>
<g>
</g>
<g>
</g>
<g>
</g>
<g>
</g>
<g>
</g>
<g>
</g>
<g>
</g>
<g>
</g>
<g>
</g>
<g>
</g>
<g>
</g>
<g>
</g>
<g>
</g>
<g>
</g>
</svg>
