<?xml version="1.0" encoding="utf-8"?>
<!-- Generator: Adobe Illustrator 18.0.0, SVG Export Plug-In . SVG Version: 6.00 Build 0)  -->
<!DOCTYPE svg PUBLIC "-//W3C//DTD SVG 1.1//EN" "http://www.w3.org/Graphics/SVG/1.1/DTD/svg11.dtd">
<svg version="1.1" id="Layer_1" xmlns="http://www.w3.org/2000/svg" xmlns:xlink="http://www.w3.org/1999/xlink" x="0px" y="0px"
	 viewBox="0 0 16 16" enable-background="new 0 0 16 16" xml:space="preserve">
<path d="M15.8,2H0.3C0.1,2,0,1.9,0,1.8V0.3C0,0.1,0.1,0,0.3,0h15.5C15.9,0,16,0.1,16,0.3v1.5C16,1.9,15.9,2,15.8,2z"/>
<path d="M15.8,16H0.3C0.1,16,0,15.9,0,15.8v-1.5C0,14.1,0.1,14,0.3,14h15.5c0.1,0,0.3,0.1,0.3,0.3v1.5C16,15.9,15.9,16,15.8,16z"/>
<path d="M15.8,9H0.3C0.1,9,0,8.9,0,8.8V7.3C0,7.1,0.1,7,0.3,7h15.5C15.9,7,16,7.1,16,7.3v1.5C16,8.9,15.9,9,15.8,9z"/>
<g>
</g>
<g>
</g>
<g>
</g>
<g>
</g>
<g>
</g>
<g>
</g>
<g>
</g>
<g>
</g>
<g>
</g>
<g>
</g>
<g>
</g>
<g>
</g>
<g>
</g>
<g>
</g>
<g>
</g>
</svg>
